<?xml version="1.0" encoding="utf-8"?>
<!-- Generator: Adobe Illustrator 22.0.1, SVG Export Plug-In . SVG Version: 6.00 Build 0)  -->
<svg version="1.1" id="Layer_1" xmlns="http://www.w3.org/2000/svg" xmlns:xlink="http://www.w3.org/1999/xlink" x="0px" y="0px"
	 viewBox="0 0 1110 125" style="enable-background:new 0 0 1110 125;" xml:space="preserve">
<style type="text/css">
	.st0{fill:#E9E8EB;}
	.st1{fill:#FCB84D;}
	.st2{fill:#F48120;}
	.st3{fill:#7CCBBD;}
	.st4{fill:#425471;}
	.st5{fill:#FFFFFF;}
	.st6{fill:#475671;}
	.st7{fill:#128944;}
	.st8{fill:#AEDDD4;}
	.st9{fill:#E5D0C6;}
	.st10{fill:#FAE3D6;}
	.st11{fill:#FCB84C;}
	.st12{fill:#1A507F;}
	.st13{fill:#184C9C;}
	.st14{fill:#3767B0;}
	.st15{fill:#C3E7EF;}
	.st16{fill:#53C0AA;}
	.st17{fill:none;}
	.st18{fill:#3A7FB2;}
	.st19{fill:#C0C5CE;}
	.st20{fill:#7AB4C5;}
	.st21{display:none;}
	.st22{display:inline;}
	.st23{fill:#D2EDF3;}
	.st24{fill:#387FB2;}
	.st25{fill:none;stroke:#387FB2;stroke-width:3.0804;stroke-linecap:round;stroke-linejoin:round;stroke-miterlimit:10;}
	.st26{fill:#D1ECF2;}
	.st27{fill:#FFFFFF;stroke:#184D9B;stroke-width:3.8711;stroke-linecap:round;stroke-linejoin:round;stroke-miterlimit:10;}
	.st28{fill:#184D9B;}
	.st29{fill:none;stroke:#425471;stroke-width:3.0016;stroke-linecap:round;stroke-linejoin:round;stroke-miterlimit:10;}
	
		.st30{fill:none;stroke:#184C9C;stroke-width:4;stroke-linecap:round;stroke-linejoin:round;stroke-miterlimit:10;stroke-dasharray:0,16;}
	
		.st31{fill:#FFFFFF;stroke:#184C9C;stroke-width:4.5609;stroke-linecap:round;stroke-linejoin:round;stroke-miterlimit:10;stroke-dasharray:0,18.2434;}
	.st32{fill:#FFFFFF;stroke:#184D9B;stroke-width:4.726;stroke-linecap:round;stroke-linejoin:round;stroke-miterlimit:10;}
	.st33{fill:#FDEBEA;}
	.st34{fill:none;stroke:#C7C7C7;stroke-width:0.6942;stroke-linecap:round;stroke-linejoin:round;stroke-miterlimit:10;}
	.st35{fill:none;stroke:#425471;stroke-width:2.0825;stroke-linecap:round;stroke-linejoin:round;stroke-miterlimit:10;}
	
		.st36{fill:none;stroke:#184C9C;stroke-width:2.0825;stroke-linecap:round;stroke-linejoin:round;stroke-miterlimit:10;stroke-dasharray:0,4.8592;}
	.st37{fill:#FFFFFF;stroke:#E9E8EB;stroke-width:0.6007;stroke-miterlimit:10;}
	.st38{fill:#B6B6B7;}
	.st39{fill:none;stroke:#E9E8EB;stroke-width:0.6007;stroke-miterlimit:10;}
	.st40{fill:#CACAC9;}
	.st41{fill:#FBB64A;}
	.st42{fill:#53BFA9;}
	.st43{fill:#FFFFFF;stroke:#E9E8EB;stroke-width:0.6034;stroke-miterlimit:10;}
	.st44{fill:none;stroke:#C7C7C7;stroke-width:1.1555;stroke-linecap:round;stroke-linejoin:round;stroke-miterlimit:10;}
	.st45{fill:none;stroke:#425471;stroke-width:3.4664;stroke-linecap:round;stroke-linejoin:round;stroke-miterlimit:10;}
	
		.st46{fill:none;stroke:#184C9C;stroke-width:3.4664;stroke-linecap:round;stroke-linejoin:round;stroke-miterlimit:10;stroke-dasharray:0,8.0882;}
	.st47{fill:#FFFFFF;stroke:#E9E8EB;stroke-width:0.9999;stroke-miterlimit:10;}
	.st48{fill:none;stroke:#E9E8EB;stroke-width:0.9999;stroke-miterlimit:10;}
	.st49{fill:#FFFFFF;stroke:#E9E8EB;stroke-width:1.0043;stroke-miterlimit:10;}
	.st50{fill:#808184;}
	
		.st51{fill:none;stroke:#184C9C;stroke-width:4.5609;stroke-linecap:round;stroke-linejoin:round;stroke-miterlimit:10;stroke-dasharray:0,18.2434;}
	
		.st52{fill:none;stroke:#184C9C;stroke-width:2.6303;stroke-linecap:round;stroke-linejoin:round;stroke-miterlimit:10;stroke-dasharray:0,10.5213;}
	.st53{fill:#164A9E;}
	.st54{fill:#FFFFFF;stroke:#164A9E;stroke-width:4.473;stroke-linecap:round;stroke-linejoin:round;stroke-miterlimit:10;}
	.st55{fill:#FFFFFF;stroke:#475671;stroke-width:4.3206;stroke-linecap:round;stroke-linejoin:round;stroke-miterlimit:10;}
	
		.st56{fill:none;stroke:#184C9C;stroke-width:4.4363;stroke-linecap:round;stroke-linejoin:round;stroke-miterlimit:10;stroke-dasharray:0,17.7453;}
	.st57{fill:#FFFFFF;stroke:#FFFFFF;stroke-width:0.9994;stroke-miterlimit:10;}
	.st58{fill:none;stroke:#C7C7C7;stroke-width:1.003;stroke-linecap:round;stroke-linejoin:round;stroke-miterlimit:10;}
	.st59{fill:none;stroke:#425471;stroke-width:3.009;stroke-linecap:round;stroke-linejoin:round;stroke-miterlimit:10;}
	
		.st60{fill:none;stroke:#184C9C;stroke-width:3.009;stroke-linecap:round;stroke-linejoin:round;stroke-miterlimit:10;stroke-dasharray:0,7.021;}
	.st61{fill:#FFFFFF;stroke:#E9E8EB;stroke-width:0.868;stroke-miterlimit:10;}
	.st62{fill:none;stroke:#E9E8EB;stroke-width:0.868;stroke-miterlimit:10;}
	.st63{fill:#FFFFFF;stroke:#E9E8EB;stroke-width:0.8718;stroke-miterlimit:10;}
	.st64{fill:#0747A6;}
	.st65{fill:none;stroke:#C7C7C7;stroke-width:0.8273;stroke-linecap:round;stroke-linejoin:round;stroke-miterlimit:10;}
	.st66{fill:none;stroke:#425471;stroke-width:2.482;stroke-linecap:round;stroke-linejoin:round;stroke-miterlimit:10;}
	
		.st67{fill:none;stroke:#184C9C;stroke-width:2.482;stroke-linecap:round;stroke-linejoin:round;stroke-miterlimit:10;stroke-dasharray:0,5.7913;}
	.st68{fill:#FFFFFF;stroke:#E9E8EB;stroke-width:0.716;stroke-miterlimit:10;}
	.st69{fill:none;stroke:#E9E8EB;stroke-width:0.716;stroke-miterlimit:10;}
	.st70{fill:#FFFFFF;stroke:#E9E8EB;stroke-width:0.7191;stroke-miterlimit:10;}
	.st71{fill:none;stroke:#C7C7C7;stroke-width:0.5976;stroke-linecap:round;stroke-linejoin:round;stroke-miterlimit:10;}
	.st72{fill:none;stroke:#425471;stroke-width:1.7928;stroke-linecap:round;stroke-linejoin:round;stroke-miterlimit:10;}
	
		.st73{fill:none;stroke:#184C9C;stroke-width:1.7928;stroke-linecap:round;stroke-linejoin:round;stroke-miterlimit:10;stroke-dasharray:0,4.1832;}
	.st74{fill:#FFFFFF;stroke:#E9E8EB;stroke-width:0.5172;stroke-miterlimit:10;}
	.st75{fill:none;stroke:#E9E8EB;stroke-width:0.5172;stroke-miterlimit:10;}
	.st76{fill:#FFFFFF;stroke:#E9E8EB;stroke-width:0.5195;stroke-miterlimit:10;}
	.st77{fill:#4FBFA5;}
	.st78{fill:none;stroke:#C7C7C7;stroke-width:0.7038;stroke-linecap:round;stroke-linejoin:round;stroke-miterlimit:10;}
	.st79{fill:none;stroke:#425471;stroke-width:2.1113;stroke-linecap:round;stroke-linejoin:round;stroke-miterlimit:10;}
	
		.st80{fill:none;stroke:#184C9C;stroke-width:2.1113;stroke-linecap:round;stroke-linejoin:round;stroke-miterlimit:10;stroke-dasharray:0,4.9264;}
	.st81{fill:#FFFFFF;stroke:#E9E8EB;stroke-width:0.609;stroke-miterlimit:10;}
	.st82{fill:none;stroke:#E9E8EB;stroke-width:0.609;stroke-miterlimit:10;}
	.st83{fill:#FFFFFF;stroke:#E9E8EB;stroke-width:0.6117;stroke-miterlimit:10;}
	.st84{fill:none;stroke:#475671;stroke-width:6;stroke-miterlimit:10;}
	.st85{fill:#C3E5EE;}
	.st86{display:none;fill:none;stroke:#EE4036;stroke-miterlimit:10;}
</style>
<g>
	<g>
		<g>
			<circle class="st26" cx="33.1" cy="52.2" r="33"/>
		</g>
		<g>
			<path class="st28" d="M59.4,53.5H6.9c-0.7,0-1.3-0.6-1.3-1.3s0.6-1.3,1.3-1.3h52.5c0.7,0,1.3,0.6,1.3,1.3S60.1,53.5,59.4,53.5z"
				/>
		</g>
		<g>
			<circle class="st5" cx="33.1" cy="52.2" r="18.8"/>
			<path class="st28" d="M33.1,72.3C22,72.3,13,63.3,13,52.2S22,32,33.1,32s20.1,9,20.1,20.1S44.2,72.3,33.1,72.3z M33.1,34.6
				c-9.7,0-17.5,7.9-17.5,17.5s7.9,17.5,17.5,17.5s17.5-7.9,17.5-17.5S42.8,34.6,33.1,34.6z"/>
		</g>
		<g>
			<circle class="st28" cx="33.1" cy="52.2" r="9.6"/>
		</g>
	</g>
	<g>
		<g>
			<path class="st53" d="M96.3,45.5v8.2h-4.3V31.9h8.2c4.3,0,7.2,2.9,7.2,6.8c0,4-2.9,6.8-7.2,6.8H96.3z M99.7,41.9
				c2.1,0,3.4-1.2,3.4-3.1c0-1.9-1.3-3.1-3.4-3.1h-3.4v6.3H99.7z"/>
			<path class="st53" d="M119.4,42.7c-0.5-0.1-0.9-0.1-1.2-0.1c-2.1,0-3.9,1-3.9,4.3v6.9h-4.1V38.6h4v2.3c0.9-2,3-2.4,4.3-2.4
				c0.3,0,0.6,0,1,0.1V42.7z"/>
			<path class="st53" d="M136.9,46.2c0,4.7-3.4,8.1-8,8.1c-4.5,0-8-3.4-8-8.1c0-4.7,3.4-8.1,8-8.1C133.5,38.1,136.9,41.5,136.9,46.2
				z M132.8,46.2c0-2.9-1.9-4.3-3.9-4.3s-3.9,1.5-3.9,4.3c0,2.8,1.9,4.3,3.9,4.3S132.8,49,132.8,46.2z"/>
			<path class="st53" d="M140.1,38.6h4.1v16.5c0,2.9-1.8,5-4.8,5c-1.2,0-2.1-0.2-2.3-0.3v-3.4c0.3,0.1,0.7,0.2,1.3,0.2
				c1.2,0,1.7-0.7,1.7-1.8V38.6z M142.2,31c1.4,0,2.5,1.1,2.5,2.6c0,1.4-1.1,2.5-2.5,2.5c-1.4,0-2.5-1.1-2.5-2.5
				C139.6,32.2,140.8,31,142.2,31z"/>
			<path class="st53" d="M162.2,49.4c-0.8,2.6-3.2,4.8-6.9,4.8c-4.2,0-7.8-3-7.8-8.1c0-4.8,3.6-8,7.5-8c4.7,0,7.5,3,7.5,7.9
				c0,0.6-0.1,1.2-0.1,1.3h-10.9c0.1,2,1.8,3.5,3.8,3.5c1.9,0,3-1,3.5-2.3L162.2,49.4z M158.4,44.4c-0.1-1.5-1-3-3.4-3
				c-2.1,0-3.3,1.6-3.4,3H158.4z"/>
			<path class="st53" d="M168.6,46.2c0,2.7,1.8,4.3,3.9,4.3c2.1,0,3.1-1.4,3.5-2.6l3.6,1.2c-0.7,2.5-3.1,5.1-7.1,5.1
				c-4.5,0-8-3.4-8-8.1c0-4.7,3.5-8.1,7.9-8.1c4.1,0,6.5,2.6,7.1,5.1l-3.7,1.2c-0.4-1.3-1.3-2.6-3.4-2.6
				C170.4,41.9,168.6,43.4,168.6,46.2z"/>
			<path class="st53" d="M187.7,38.6h3.1v3.6h-3.1v6.4c0,1.3,0.6,1.8,1.8,1.8c0.5,0,1-0.1,1.3-0.1v3.4c-0.4,0.2-1.1,0.4-2.3,0.4
				c-3,0-4.8-1.8-4.8-4.7v-7.1h-2.7v-3.6h0.8c1.6,0,2.3-1,2.3-2.4V34h3.7V38.6z"/>
			<path class="st53" d="M211.3,35.9v17.8H207V35.9h-6.9v-4h18.1v4H211.3z"/>
			<path class="st53" d="M222.7,31.1c1.4,0,2.5,1.1,2.5,2.6c0,1.4-1.1,2.5-2.5,2.5c-1.4,0-2.5-1.1-2.5-2.5
				C220.1,32.2,221.3,31.1,222.7,31.1z M220.6,53.8V38.6h4.1v15.2H220.6z"/>
			<path class="st53" d="M229.1,53.8V38.6h3.9v1.9c0.8-1.5,2.8-2.3,4.4-2.3c2.1,0,3.7,0.9,4.5,2.5c1.2-1.9,2.8-2.5,4.8-2.5
				c2.8,0,5.5,1.7,5.5,5.8v9.8h-4v-9c0-1.6-0.8-2.9-2.7-2.9c-1.8,0-2.8,1.4-2.8,3v8.9h-4.1v-9c0-1.6-0.8-2.9-2.7-2.9
				c-1.8,0-2.8,1.3-2.8,3v8.9H229.1z"/>
			<path class="st53" d="M270,49.4c-0.8,2.6-3.2,4.8-6.9,4.8c-4.2,0-7.8-3-7.8-8.1c0-4.8,3.6-8,7.5-8c4.7,0,7.5,3,7.5,7.9
				c0,0.6-0.1,1.2-0.1,1.3h-10.9c0.1,2,1.8,3.5,3.8,3.5c1.9,0,3-1,3.5-2.3L270,49.4z M266.2,44.4c-0.1-1.5-1-3-3.4-3
				c-2.1,0-3.3,1.6-3.4,3H266.2z"/>
			<path class="st53" d="M273.8,53.8V31.9h4.3v17.8h9.8v4.1H273.8z"/>
			<path class="st53" d="M292.8,31.1c1.4,0,2.5,1.1,2.5,2.6c0,1.4-1.1,2.5-2.5,2.5c-1.4,0-2.5-1.1-2.5-2.5
				C290.3,32.2,291.4,31.1,292.8,31.1z M290.8,53.8V38.6h4.1v15.2H290.8z"/>
			<path class="st53" d="M303.4,53.8h-4.1V38.6h4v1.9c0.9-1.6,2.7-2.3,4.4-2.3c3.8,0,5.5,2.7,5.5,6v9.6H309v-8.9c0-1.7-0.8-3-2.8-3
				c-1.8,0-2.8,1.4-2.8,3.1V53.8z"/>
			<path class="st53" d="M330.9,49.4c-0.8,2.6-3.2,4.8-6.9,4.8c-4.2,0-7.8-3-7.8-8.1c0-4.8,3.6-8,7.5-8c4.7,0,7.5,3,7.5,7.9
				c0,0.6-0.1,1.2-0.1,1.3h-10.9c0.1,2,1.8,3.5,3.8,3.5c1.9,0,3-1,3.5-2.3L330.9,49.4z M327.1,44.4c-0.1-1.5-1-3-3.4-3
				c-2.1,0-3.3,1.6-3.4,3H327.1z"/>
		</g>
		<g>
			<path class="st50" d="M310.1,83.5c1.4,0,2.1,0.8,2.1,1.9c0,0.9-0.6,1.8-1.5,2.1c0.5,0.2,1.1,0.8,1.1,1.6c0,1.4-1.1,2.4-2.8,2.4
				h-3.2l1.7-7.9H310.1z M308.8,90.2c0.8,0,1.4-0.5,1.4-1.2c0-0.5-0.3-0.9-1.1-0.9H308l-0.4,2.1H308.8z M309.3,86.8
				c0.8,0,1.3-0.5,1.3-1.2c0-0.5-0.3-0.8-1-0.8h-0.9l-0.4,2H309.3z"/>
			<path class="st50" d="M312.6,91.4l1.7-7.9h5l-0.3,1.5h-3.4l-0.4,1.8h3.1l-0.3,1.4h-3.1l-0.4,1.8h3.4l-0.3,1.5H312.6z"/>
			<path class="st50" d="M323.7,85l-1.4,6.5h-1.5l1.4-6.5h-2.4l0.3-1.5h6.3L326,85H323.7z"/>
			<path class="st50" d="M329.8,89.6h-3.1l-1,1.8H324l4.6-7.9h1.8l1.3,7.9h-1.6L329.8,89.6z M327.5,88.2h2.1l-0.4-3L327.5,88.2z"/>
		</g>
		<g>
			<path class="st50" d="M205.6,68v6.6H204V68h-1.5v-1.4h1.5v-1.3c0-1.8,1.2-2.7,2.6-2.7c0.5,0,0.9,0.1,0.9,0.2v1.4
				c-0.1,0-0.3-0.1-0.7-0.1c-0.5,0-1.3,0.3-1.3,1.4v1.3h1.9V68H205.6z"/>
			<path class="st50" d="M216.3,70.6c0,2.4-1.7,4.2-4.1,4.2c-2.4,0-4.1-1.8-4.1-4.2c0-2.4,1.7-4.2,4.1-4.2
				C214.6,66.4,216.3,68.2,216.3,70.6z M214.7,70.6c0-1.8-1.2-2.8-2.5-2.8c-1.3,0-2.5,1-2.5,2.8c0,1.9,1.2,2.8,2.5,2.8
				C213.6,73.4,214.7,72.4,214.7,70.6z"/>
			<path class="st50" d="M222.7,68.2c-0.2,0-0.5,0-0.7,0c-1.3,0-2.2,0.7-2.2,2.4v4h-1.6v-8h1.5V68c0.6-1.2,1.6-1.5,2.4-1.5
				c0.2,0,0.4,0,0.5,0.1V68.2z"/>
			<path class="st50" d="M227.5,70.3l1.6-0.4v1.1c0,1.6,0.8,2.2,2,2.2c1.2,0,1.9-0.8,1.9-2.1v-8.3h1.6v8.2c0,2.1-1.3,3.8-3.5,3.8
				c-2.3,0-3.7-1.5-3.7-3.7V70.3z"/>
			<path class="st50" d="M237.5,74.6V62.8h1.7v11.7H237.5z"/>
			<path class="st50" d="M245.5,69.8h-1.8v4.8h-1.6V62.8h4.4c2.2,0,3.6,1.6,3.6,3.5c0,1.7-1.1,3-2.8,3.3l2.8,4.9h-1.9L245.5,69.8z
				 M246.3,68.3c1.3,0,2.2-0.8,2.2-2c0-1.2-0.9-2-2.2-2h-2.5v4H246.3z"/>
			<path class="st50" d="M259.2,71.3H254l-1.2,3.3H251l4.7-11.7h1.9l4.7,11.7h-1.8L259.2,71.3z M254.5,69.8h4l-2-5.3L254.5,69.8z"/>
			<path class="st50" d="M274,66c-0.1-0.8-0.8-2-2.5-2c-1.3,0-2.3,0.9-2.3,2c0,0.8,0.5,1.5,1.5,1.7l1.8,0.4c2,0.4,3,1.7,3,3.3
				c0,1.8-1.6,3.5-4.1,3.5c-2.8,0-4.2-1.8-4.4-3.5l1.6-0.5c0.1,1.3,1,2.5,2.8,2.5c1.6,0,2.4-0.8,2.4-1.9c0-0.8-0.6-1.6-1.8-1.8
				l-1.7-0.4c-1.7-0.4-2.9-1.5-2.9-3.2c0-1.8,1.7-3.5,3.9-3.5c2.6,0,3.7,1.6,4,2.9L274,66z"/>
			<path class="st50" d="M284.9,70.6c0,2.4-1.7,4.2-4.1,4.2s-4.1-1.8-4.1-4.2c0-2.4,1.7-4.2,4.1-4.2S284.9,68.2,284.9,70.6z
				 M283.3,70.6c0-1.8-1.2-2.8-2.5-2.8s-2.5,1-2.5,2.8c0,1.9,1.2,2.8,2.5,2.8S283.3,72.4,283.3,70.6z"/>
			<path class="st50" d="M289,68v6.6h-1.6V68h-1.5v-1.4h1.5v-1.3c0-1.8,1.2-2.7,2.6-2.7c0.5,0,0.9,0.1,0.9,0.2v1.4
				c-0.1,0-0.3-0.1-0.7-0.1c-0.5,0-1.3,0.3-1.3,1.4v1.3h1.9V68H289z"/>
			<path class="st50" d="M294.7,66.6h1.7V68h-1.7v4.1c0,0.7,0.3,1.1,1.1,1.1c0.2,0,0.5,0,0.6-0.1v1.3c-0.1,0-0.5,0.1-1.1,0.1
				c-1.4,0-2.2-0.8-2.2-2.3V68h-1.5v-1.4h0.4c0.9,0,1.2-0.5,1.2-1.2v-1.3h1.4V66.6z"/>
			<path class="st50" d="M304.7,66.6l2.1,6l1.8-6h1.6l-2.6,8H306l-2.1-6.1l-2.1,6.1h-1.6l-2.6-8h1.7l1.8,6l2.1-6H304.7z"/>
			<path class="st50" d="M313.6,70l2.2-0.3c0.5-0.1,0.6-0.3,0.6-0.6c0-0.8-0.5-1.4-1.7-1.4c-1.1,0-1.7,0.7-1.8,1.6l-1.5-0.3
				c0.2-1.5,1.5-2.6,3.3-2.6c2.4,0,3.3,1.4,3.3,2.9v4c0,0.7,0.1,1.1,0.1,1.3h-1.5c0-0.2-0.1-0.5-0.1-1.1c-0.3,0.6-1.1,1.3-2.6,1.3
				c-1.6,0-2.7-1.1-2.7-2.4C311.2,71,312.2,70.2,313.6,70z M316.3,71.2v-0.4l-2.4,0.4c-0.7,0.1-1.2,0.5-1.2,1.2
				c0,0.6,0.5,1.2,1.3,1.2C315.3,73.5,316.3,72.9,316.3,71.2z"/>
			<path class="st50" d="M324.7,68.2c-0.2,0-0.5,0-0.7,0c-1.3,0-2.2,0.7-2.2,2.4v4h-1.6v-8h1.5V68c0.6-1.2,1.6-1.5,2.4-1.5
				c0.2,0,0.4,0,0.5,0.1V68.2z"/>
			<path class="st50" d="M333.2,72.3c-0.4,1.4-1.7,2.5-3.6,2.5c-2.1,0-4-1.6-4-4.3c0-2.5,1.8-4.2,3.8-4.2c2.4,0,3.8,1.7,3.8,4.2
				c0,0.2,0,0.4,0,0.5h-6c0,1.4,1.1,2.4,2.4,2.4c1.3,0,1.9-0.7,2.2-1.6L333.2,72.3z M331.6,69.8c0-1.1-0.8-2-2.2-2
				c-1.3,0-2.1,1-2.2,2H331.6z"/>
		</g>
	</g>
</g>
<g>
	<g>
		<g>
			<path class="st0" d="M759,86.2H581c-4.1,0-7.4-3.3-7.4-7.4v0c0-4.1,3.3-7.4,7.4-7.4H759c4.1,0,7.4,3.3,7.4,7.4v0
				C766.3,82.9,763,86.2,759,86.2z"/>
		</g>
		<g>
			<circle class="st3" cx="582.6" cy="78.8" r="4.1"/>
		</g>
	</g>
	<g>
		<g>
			<path class="st0" d="M1101.3,61.1H602.4c-4.1,0-7.4-3.3-7.4-7.4v0c0-4.1,3.3-7.4,7.4-7.4h498.9c4.1,0,7.4,3.3,7.4,7.4v0
				C1108.7,57.8,1105.4,61.1,1101.3,61.1z"/>
		</g>
		<g>
			<circle class="st2" cx="604" cy="53.7" r="4.1"/>
		</g>
	</g>
	<g>
		<g>
			<path class="st0" d="M1031.2,40.5H544.3c-4.1,0-7.4-3.3-7.4-7.4v0c0-4.1,3.3-7.4,7.4-7.4h486.9c4.1,0,7.4,3.3,7.4,7.4v0
				C1038.5,37.2,1035.2,40.5,1031.2,40.5z"/>
		</g>
		<g>
			<circle class="st1" cx="545.5" cy="33.1" r="4.1"/>
		</g>
	</g>
	<g>
		<g>
			<g>
				<g>
					<path class="st85" d="M870.8,124.8h-81.8v-13.5c0-11.5,9.3-20.8,20.8-20.8H850c11.5,0,20.8,9.3,20.8,20.8V124.8z"/>
				</g>
			</g>
		</g>
		<g>
			<g>
				<g>
					<path class="st9" d="M830,98.4L830,98.4c-5.3,0-9.6-4.3-9.6-9.6v-10c0-0.7,0.6-1.3,1.3-1.3h16.6c0.7,0,1.3,0.6,1.3,1.3v10
						C839.5,94.1,835.2,98.4,830,98.4z"/>
				</g>
			</g>
		</g>
		<g>
			<g>
				<g>
					<path class="st10" d="M830,80.8L830,80.8c-11.1,0-20.1-9-20.1-20.1V43.3c0-7,5.7-12.7,12.7-12.7h16c6.3,0,11.5,5.1,11.5,11.5
						v18.7C850.1,71.8,841,80.8,830,80.8z"/>
				</g>
			</g>
		</g>
		<g>
			<path class="st11" d="M806.1,48.8v7.9c0,0,0.6,4.6,3.9,4.6V42.6c0,0,24.8,5.2,34.9-6.3c0,0,1.8,0.2,3.5,2.5
				c1.6,2.3,1.5,2.5,1.9,20.7c0,0,5.2-9.1,4.9-18.8c-0.3-8.1-4.6-10.3-8.1-10.3c0,0-3.1-16.1-26.8-9.9
				C801.5,25.4,798,41.9,806.1,48.8z"/>
		</g>
		<g>
			<path class="st5" d="M823.3,65.2h13.2c0,3.6-3,6.6-6.6,6.6C826.3,71.8,823.3,68.9,823.3,65.2"/>
		</g>
		<g>
			<g>
				<path class="st12" d="M841,50.3h-6.5c-0.3,0-0.5-0.2-0.5-0.5s0.2-0.5,0.5-0.5h6.5c0.3,0,0.5,0.2,0.5,0.5S841.3,50.3,841,50.3z"
					/>
			</g>
		</g>
		<g>
			<g>
				<path class="st12" d="M824.6,50.3h-6.5c-0.3,0-0.5-0.2-0.5-0.5s0.2-0.5,0.5-0.5h6.5c0.3,0,0.5,0.2,0.5,0.5
					S824.9,50.3,824.6,50.3z"/>
			</g>
		</g>
		<g>
			<circle class="st12" cx="821.7" cy="55" r="1.2"/>
		</g>
		<g>
			<circle class="st12" cx="837.8" cy="55" r="1.2"/>
		</g>
	</g>
	<g>
		<g>
			<g>
				<g>
					<path class="st13" d="M925,121.3h-72.1V72.1c0-1.7,1.4-3,3-3h66c1.7,0,3,1.4,3,3V121.3z"/>
				</g>
			</g>
		</g>
		<g>
			<g>
				<g>
					<path class="st13" d="M925,125h-84.5c-2.5,0-4.4-2-4.4-4.4l0,0H925V125z"/>
				</g>
			</g>
		</g>
		<g>
			<g>
				<g>
					<path class="st14" d="M898.7,102.4h-16.1c-2.4,0-4.3-1.9-4.3-4.3v0c0-2.4,1.9-4.3,4.3-4.3h16.1c2.4,0,4.3,1.9,4.3,4.3v0
						C903,100.5,901.1,102.4,898.7,102.4z"/>
				</g>
			</g>
		</g>
	</g>
</g>
</svg>
