<?xml version="1.0" encoding="utf-8"?>
<!-- Generator: Adobe Illustrator 22.0.1, SVG Export Plug-In . SVG Version: 6.00 Build 0)  -->
<svg version="1.1" id="Layer_1" xmlns="http://www.w3.org/2000/svg" xmlns:xlink="http://www.w3.org/1999/xlink" x="0px" y="0px"
	 viewBox="0 0 555 285.5" style="enable-background:new 0 0 555 285.5;" xml:space="preserve">
<style type="text/css">
	.st0{fill:#425471;}
	.st1{fill:#D1ECF2;}
	.st2{fill:#FFFFFF;}
	.st3{fill:#184D9B;}
	.st4{fill:#164A9E;}
	.st5{fill:#808184;}
	.st6{fill:#4FBFA5;}
	.st7{fill:#128944;}
	.st8{fill:none;stroke:#475671;stroke-width:6;stroke-miterlimit:10;}
	.st9{fill:#E9E8EB;}
	.st10{fill:#FCB84D;}
	.st11{fill:#F48120;}
	.st12{fill:#7CCBBD;}
	.st13{fill:#C3E5EE;}
	.st14{fill:#E5D0C6;}
	.st15{fill:#FAE3D6;}
	.st16{fill:#FCB84C;}
	.st17{fill:#1A507F;}
	.st18{fill:#184C9C;}
	.st19{fill:#3767B0;}
	.st20{display:none;fill:none;stroke:#EE4036;stroke-miterlimit:10;}
</style>
<g>
	<g>
		<g>
			<circle class="st1" cx="105.2" cy="81.1" r="42.6"/>
		</g>
		<g>
			<path class="st3" d="M139,82.8H71.3c-0.9,0-1.7-0.8-1.7-1.7s0.8-1.7,1.7-1.7H139c0.9,0,1.7,0.8,1.7,1.7S140,82.8,139,82.8z"/>
		</g>
		<g>
			<circle class="st2" cx="105.2" cy="81.1" r="24.3"/>
			<path class="st3" d="M105.2,107.1c-14.3,0-26-11.7-26-26s11.7-26,26-26s26,11.7,26,26S119.5,107.1,105.2,107.1z M105.2,58.5
				c-12.5,0-22.6,10.1-22.6,22.6s10.1,22.6,22.6,22.6s22.6-10.1,22.6-22.6S117.6,58.5,105.2,58.5z"/>
		</g>
		<g>
			<circle class="st3" cx="105.2" cy="81.1" r="12.4"/>
		</g>
	</g>
	<g>
		<g>
			<path class="st4" d="M186.7,72.6v10.6h-5.5V55h10.6c5.6,0,9.3,3.7,9.3,8.8c0,5.1-3.7,8.8-9.3,8.8H186.7z M191.1,67.8
				c2.7,0,4.4-1.6,4.4-4c0-2.5-1.7-4.1-4.4-4.1h-4.3v8.1H191.1z"/>
			<path class="st4" d="M216.4,68.9c-0.6-0.1-1.1-0.2-1.6-0.2c-2.7,0-5.1,1.3-5.1,5.5v9h-5.3V63.6h5.1v2.9c1.2-2.6,3.9-3.1,5.6-3.1
				c0.4,0,0.8,0,1.2,0.1V68.9z"/>
			<path class="st4" d="M239.1,73.4c0,6-4.4,10.4-10.3,10.4c-5.9,0-10.3-4.4-10.3-10.4c0-6.1,4.4-10.4,10.3-10.4
				C234.6,63,239.1,67.4,239.1,73.4z M233.8,73.4c0-3.7-2.4-5.6-5-5.6c-2.6,0-5,1.9-5,5.6c0,3.7,2.4,5.6,5,5.6
				C231.4,79,233.8,77.1,233.8,73.4z"/>
			<path class="st4" d="M243.2,63.6h5.3v21.3c0,3.8-2.3,6.5-6.1,6.5c-1.6,0-2.7-0.3-3-0.4v-4.4c0.4,0.1,0.9,0.2,1.6,0.2
				c1.6,0,2.2-0.9,2.2-2.3V63.6z M245.9,53.9c1.8,0,3.3,1.5,3.3,3.3c0,1.8-1.4,3.2-3.3,3.2c-1.8,0-3.3-1.4-3.3-3.2
				C242.6,55.3,244.1,53.9,245.9,53.9z"/>
			<path class="st4" d="M271.7,77.6c-1,3.4-4.1,6.2-8.9,6.2c-5.4,0-10.1-3.9-10.1-10.5c0-6.3,4.6-10.3,9.6-10.3
				c6.1,0,9.7,3.9,9.7,10.2c0,0.8-0.1,1.6-0.1,1.6h-14c0.1,2.6,2.3,4.5,4.9,4.5c2.5,0,3.8-1.2,4.5-3L271.7,77.6z M266.8,71.2
				c-0.1-2-1.4-3.9-4.4-3.9c-2.7,0-4.3,2.1-4.4,3.9H266.8z"/>
			<path class="st4" d="M280,73.4c0,3.5,2.3,5.5,5,5.5s4.1-1.8,4.5-3.3l4.7,1.6c-0.9,3.3-3.9,6.6-9.2,6.6c-5.8,0-10.3-4.4-10.3-10.4
				c0-6.1,4.5-10.4,10.2-10.4c5.3,0,8.4,3.3,9.2,6.6l-4.7,1.6c-0.5-1.6-1.7-3.3-4.3-3.3C282.3,67.9,280,69.9,280,73.4z"/>
			<path class="st4" d="M304.6,63.6h3.9v4.7h-3.9v8.2c0,1.7,0.8,2.3,2.3,2.3c0.6,0,1.4-0.1,1.6-0.2V83c-0.5,0.2-1.4,0.5-3,0.5
				c-3.8,0-6.2-2.3-6.2-6.1v-9.1h-3.5v-4.7h1c2.1,0,3-1.4,3-3.1v-2.7h4.8V63.6z"/>
			<path class="st4" d="M335,60.2v23h-5.5v-23h-8.9V55H344v5.2H335z"/>
			<path class="st4" d="M349.7,53.9c1.8,0,3.3,1.5,3.3,3.3c0,1.8-1.4,3.2-3.3,3.2c-1.8,0-3.3-1.5-3.3-3.2
				C346.5,55.4,347.9,53.9,349.7,53.9z M347.1,83.2V63.6h5.3v19.6H347.1z"/>
			<path class="st4" d="M358,83.2V63.6h5.1V66c1.1-1.9,3.6-2.9,5.7-2.9c2.7,0,4.8,1.2,5.8,3.3c1.6-2.4,3.6-3.3,6.2-3.3
				c3.6,0,7.1,2.2,7.1,7.4v12.7h-5.1V71.6c0-2.1-1-3.7-3.5-3.7c-2.3,0-3.6,1.8-3.6,3.9v11.5h-5.3V71.6c0-2.1-1.1-3.7-3.5-3.7
				c-2.3,0-3.7,1.7-3.7,3.9v11.5H358z"/>
			<path class="st4" d="M410.9,77.6c-1,3.4-4.1,6.2-8.9,6.2c-5.4,0-10.1-3.9-10.1-10.5c0-6.3,4.6-10.3,9.6-10.3
				c6.1,0,9.7,3.9,9.7,10.2c0,0.8-0.1,1.6-0.1,1.6h-14c0.1,2.6,2.3,4.5,4.9,4.5c2.5,0,3.8-1.2,4.5-3L410.9,77.6z M405.9,71.2
				c-0.1-2-1.4-3.9-4.4-3.9c-2.7,0-4.3,2.1-4.4,3.9H405.9z"/>
			<path class="st4" d="M415.7,83.2V55h5.5v23h12.6v5.3H415.7z"/>
			<path class="st4" d="M440.3,53.9c1.8,0,3.3,1.5,3.3,3.3c0,1.8-1.4,3.2-3.3,3.2c-1.8,0-3.3-1.5-3.3-3.2
				C437,55.4,438.5,53.9,440.3,53.9z M437.6,83.2V63.6h5.3v19.6H437.6z"/>
			<path class="st4" d="M453.9,83.2h-5.3V63.6h5.1v2.4c1.2-2,3.5-2.9,5.7-2.9c4.9,0,7.1,3.5,7.1,7.8v12.3h-5.3V71.8
				c0-2.2-1.1-3.9-3.6-3.9c-2.3,0-3.7,1.8-3.7,4.1V83.2z"/>
			<path class="st4" d="M489.4,77.6c-1,3.4-4.1,6.2-8.9,6.2c-5.4,0-10.1-3.9-10.1-10.5c0-6.3,4.6-10.3,9.6-10.3
				c6.1,0,9.7,3.9,9.7,10.2c0,0.8-0.1,1.6-0.1,1.6h-14c0.1,2.6,2.3,4.5,4.9,4.5c2.5,0,3.8-1.2,4.5-3L489.4,77.6z M484.5,71.2
				c-0.1-2-1.4-3.9-4.4-3.9c-2.7,0-4.3,2.1-4.4,3.9H484.5z"/>
		</g>
		<g>
			<path class="st5" d="M462.5,121.6c1.8,0,2.7,1,2.7,2.4c0,1.2-0.8,2.3-2,2.6c0.7,0.2,1.4,1,1.4,2c0,1.8-1.5,3.2-3.6,3.2H457
				l2.2-10.2H462.5z M460.9,130.2c1.1,0,1.9-0.6,1.9-1.6c0-0.7-0.4-1.1-1.4-1.1h-1.5l-0.6,2.7H460.9z M461.5,125.8
				c1,0,1.7-0.6,1.7-1.5c0-0.7-0.4-1.1-1.3-1.1h-1.2l-0.5,2.6H461.5z"/>
			<path class="st5" d="M465.8,131.8l2.2-10.2h6.4l-0.4,1.9h-4.4l-0.5,2.3h4l-0.4,1.8h-4l-0.5,2.4h4.4l-0.4,1.9H465.8z"/>
			<path class="st5" d="M480.2,123.5l-1.8,8.4h-2l1.8-8.4h-3.1l0.4-1.9h8.1l-0.4,1.9H480.2z"/>
			<path class="st5" d="M488,129.5h-4l-1.3,2.3h-2.2l6-10.2h2.3l1.6,10.2h-2.1L488,129.5z M485.1,127.7h2.7l-0.5-3.8L485.1,127.7z"
				/>
		</g>
		<g>
			<path class="st5" d="M327.7,101.6v8.5h-2.1v-8.5h-1.9v-1.8h1.9V98c0-2.3,1.5-3.5,3.4-3.5c0.7,0,1.1,0.1,1.2,0.2v1.8
				c-0.1,0-0.4-0.1-0.9-0.1c-0.7,0-1.6,0.3-1.6,1.8v1.6h2.5v1.8H327.7z"/>
			<path class="st5" d="M341.6,104.9c0,3.1-2.2,5.5-5.3,5.5s-5.3-2.3-5.3-5.5c0-3.1,2.2-5.4,5.3-5.4S341.6,101.8,341.6,104.9z
				 M339.5,104.9c0-2.4-1.5-3.7-3.2-3.7s-3.2,1.3-3.2,3.7c0,2.4,1.5,3.7,3.2,3.7S339.5,107.3,339.5,104.9z"/>
			<path class="st5" d="M349.8,101.8c-0.3,0-0.6-0.1-0.9-0.1c-1.7,0-2.8,0.9-2.8,3.2v5.1h-2V99.8h2v1.8c0.7-1.6,2-2,3.1-2
				c0.3,0,0.6,0,0.7,0.1V101.8z"/>
			<path class="st5" d="M356,104.6l2.1-0.5v1.4c0,2,1.1,2.9,2.6,2.9c1.5,0,2.5-1,2.5-2.8V94.9h2.1v10.6c0,2.6-1.7,4.8-4.5,4.8
				c-3,0-4.7-1.9-4.7-4.8V104.6z"/>
			<path class="st5" d="M368.9,110V94.9h2.1V110H368.9z"/>
			<path class="st5" d="M379.3,103.9H377v6.2h-2.1V94.9h5.7c2.9,0,4.6,2,4.6,4.5c0,2.2-1.4,3.9-3.7,4.3l3.6,6.3h-2.4L379.3,103.9z
				 M380.2,102c1.7,0,2.9-1,2.9-2.6c0-1.6-1.2-2.6-2.9-2.6H377v5.2H380.2z"/>
			<path class="st5" d="M396.8,105.8h-6.7l-1.6,4.2h-2.2l6-15.1h2.4l6,15.1h-2.3L396.8,105.8z M390.9,103.9h5.2l-2.6-6.8
				L390.9,103.9z"/>
			<path class="st5" d="M416,99c-0.2-1.1-1.1-2.6-3.2-2.6c-1.7,0-2.9,1.1-2.9,2.5c0,1.1,0.7,1.9,1.9,2.2l2.3,0.5
				c2.5,0.6,3.9,2.1,3.9,4.2c0,2.3-2,4.5-5.2,4.5c-3.7,0-5.4-2.3-5.7-4.5l2-0.6c0.1,1.7,1.3,3.2,3.6,3.2c2.1,0,3.1-1.1,3.1-2.4
				c0-1.1-0.7-2-2.3-2.3l-2.2-0.5c-2.2-0.5-3.7-1.9-3.7-4.1c0-2.4,2.2-4.5,5-4.5c3.4,0,4.8,2.1,5.1,3.8L416,99z"/>
			<path class="st5" d="M430.1,104.9c0,3.1-2.2,5.5-5.3,5.5s-5.3-2.3-5.3-5.5c0-3.1,2.2-5.4,5.3-5.4S430.1,101.8,430.1,104.9z
				 M428,104.9c0-2.4-1.5-3.7-3.2-3.7c-1.7,0-3.2,1.3-3.2,3.7c0,2.4,1.5,3.7,3.2,3.7C426.5,108.6,428,107.3,428,104.9z"/>
			<path class="st5" d="M435.3,101.6v8.5h-2.1v-8.5h-1.9v-1.8h1.9V98c0-2.3,1.5-3.5,3.4-3.5c0.7,0,1.1,0.1,1.2,0.2v1.8
				c-0.1,0-0.4-0.1-0.9-0.1c-0.7,0-1.6,0.3-1.6,1.8v1.6h2.5v1.8H435.3z"/>
			<path class="st5" d="M442.6,99.8h2.2v1.8h-2.2v5.3c0,0.9,0.4,1.4,1.4,1.4c0.3,0,0.6,0,0.8-0.1v1.7c-0.2,0.1-0.7,0.2-1.4,0.2
				c-1.8,0-2.9-1.1-2.9-2.9v-5.6h-2v-1.8h0.6c1.1,0,1.6-0.7,1.6-1.6v-1.7h1.8V99.8z"/>
			<path class="st5" d="M455.6,99.8l2.7,7.7l2.3-7.7h2.1l-3.3,10.3h-2.1l-2.7-7.8l-2.7,7.8h-2.1l-3.4-10.3h2.2l2.3,7.7l2.7-7.7
				H455.6z"/>
			<path class="st5" d="M467,104.2l2.8-0.4c0.6-0.1,0.8-0.4,0.8-0.8c0-1-0.7-1.8-2.2-1.8c-1.4,0-2.2,0.9-2.3,2.1l-1.9-0.4
				c0.2-2,2-3.3,4.2-3.3c3.1,0,4.3,1.8,4.3,3.8v5.1c0,0.9,0.1,1.4,0.1,1.7h-2c0-0.3-0.1-0.6-0.1-1.4c-0.4,0.7-1.5,1.7-3.3,1.7
				c-2.1,0-3.4-1.5-3.4-3.1C463.9,105.5,465.3,104.4,467,104.2z M470.6,105.6v-0.5l-3.1,0.5c-0.9,0.1-1.5,0.6-1.5,1.5
				c0,0.8,0.6,1.5,1.7,1.5C469.3,108.7,470.6,107.9,470.6,105.6z"/>
			<path class="st5" d="M481.4,101.8c-0.3,0-0.6-0.1-0.9-0.1c-1.7,0-2.8,0.9-2.8,3.2v5.1h-2V99.8h2v1.8c0.7-1.6,2-2,3.1-2
				c0.3,0,0.6,0,0.7,0.1V101.8z"/>
			<path class="st5" d="M492.4,107.1c-0.6,1.8-2.2,3.2-4.6,3.2c-2.8,0-5.2-2-5.2-5.5c0-3.2,2.3-5.4,4.9-5.4c3.2,0,4.9,2.2,4.9,5.4
				c0,0.3,0,0.5,0,0.6h-7.7c0,1.8,1.4,3.1,3.1,3.1c1.7,0,2.5-0.9,2.9-2.1L492.4,107.1z M490.4,103.9c0-1.5-1-2.6-2.8-2.6
				c-1.7,0-2.7,1.3-2.8,2.6H490.4z"/>
		</g>
	</g>
</g>
<g>
	<g>
		<g>
			<path class="st9" d="M222.1,246.8H44.3c-4.1,0-7.4-3.3-7.4-7.4v0c0-4.1,3.3-7.4,7.4-7.4h177.7c4.1,0,7.4,3.3,7.4,7.4v0
				C229.4,243.5,226.1,246.8,222.1,246.8z"/>
		</g>
		<g>
			<circle class="st12" cx="45.8" cy="239.4" r="4.1"/>
		</g>
	</g>
	<g>
		<g>
			<path class="st9" d="M547.1,221.7H65.7c-4.1,0-7.4-3.3-7.4-7.4v0c0-4.1,3.3-7.4,7.4-7.4h481.4c4.1,0,7.4,3.3,7.4,7.4v0
				C554.4,218.4,551.1,221.7,547.1,221.7z"/>
		</g>
		<g>
			<circle class="st11" cx="67.2" cy="214.3" r="4.1"/>
		</g>
	</g>
	<g>
		<g>
			<path class="st9" d="M494,201.1H7.6c-4.1,0-7.4-3.3-7.4-7.4v0c0-4.1,3.3-7.4,7.4-7.4H494c4.1,0,7.4,3.3,7.4,7.4v0
				C501.3,197.8,498,201.1,494,201.1z"/>
		</g>
		<g>
			<circle class="st10" cx="8.8" cy="193.7" r="4.1"/>
		</g>
	</g>
	<g>
		<g>
			<g>
				<g>
					<path class="st13" d="M333.8,285.5h-81.7V272c0-11.5,9.3-20.8,20.8-20.8h40c11.5,0,20.8,9.3,20.8,20.8V285.5z"/>
				</g>
			</g>
		</g>
		<g>
			<g>
				<g>
					<path class="st14" d="M293,259.1L293,259.1c-5.3,0-9.5-4.3-9.5-9.5v-10c0-0.7,0.6-1.3,1.3-1.3h16.5c0.7,0,1.3,0.6,1.3,1.3v10
						C302.5,254.8,298.2,259.1,293,259.1z"/>
				</g>
			</g>
		</g>
		<g>
			<g>
				<g>
					<path class="st15" d="M293,241.6L293,241.6c-11,0-20.1-9-20.1-20.1v-17.4c0-7,5.7-12.7,12.7-12.7h16c6.3,0,11.4,5.1,11.4,11.4
						v18.7C313,232.6,304,241.6,293,241.6z"/>
				</g>
			</g>
		</g>
		<g>
			<path class="st16" d="M269.1,209.6v7.9c0,0,0.6,4.6,3.9,4.6v-18.7c0,0,24.8,5.2,34.8-6.3c0,0,1.8,0.2,3.4,2.5
				c1.6,2.3,1.5,2.5,1.9,20.7c0,0,5.2-9,4.8-18.8c-0.3-8.1-4.6-10.3-8.1-10.3c0,0-3.1-16.1-26.8-9.9
				C264.5,186.2,261.1,202.7,269.1,209.6z"/>
		</g>
		<g>
			<path class="st2" d="M286.4,226h13.2c0,3.6-3,6.6-6.6,6.6S286.4,229.7,286.4,226"/>
		</g>
		<g>
			<g>
				<path class="st17" d="M304,211.1h-6.5c-0.3,0-0.5-0.2-0.5-0.5c0-0.3,0.2-0.5,0.5-0.5h6.5c0.3,0,0.5,0.2,0.5,0.5
					C304.5,210.9,304.3,211.1,304,211.1z"/>
			</g>
		</g>
		<g>
			<g>
				<path class="st17" d="M287.7,211.1h-6.5c-0.3,0-0.5-0.2-0.5-0.5c0-0.3,0.2-0.5,0.5-0.5h6.5c0.3,0,0.5,0.2,0.5,0.5
					C288.1,210.9,287.9,211.1,287.7,211.1z"/>
			</g>
		</g>
		<g>
			<circle class="st17" cx="284.7" cy="215.8" r="1.2"/>
		</g>
		<g>
			<circle class="st17" cx="300.8" cy="215.8" r="1.2"/>
		</g>
	</g>
	<g>
		<g>
			<g>
				<g>
					<path class="st18" d="M387.9,281.8h-72v-49.2c0-1.7,1.4-3,3-3h65.9c1.7,0,3,1.4,3,3V281.8z"/>
				</g>
			</g>
		</g>
		<g>
			<g>
				<g>
					<path class="st18" d="M387.9,285.5h-84.4c-2.5,0-4.4-2-4.4-4.4l0,0h88.8V285.5z"/>
				</g>
			</g>
		</g>
		<g>
			<g>
				<g>
					<path class="st19" d="M361.6,262.9h-16.1c-2.4,0-4.3-1.9-4.3-4.3l0,0c0-2.4,1.9-4.3,4.3-4.3h16.1c2.4,0,4.3,1.9,4.3,4.3l0,0
						C365.9,261,364,262.9,361.6,262.9z"/>
				</g>
			</g>
		</g>
	</g>
</g>
<rect x="210.2" y="-382.6" class="st20" width="1170" height="665.4"/>
<rect x="212.2" y="-201.5" class="st20" width="1170" height="665.4"/>
<rect x="216.2" y="-145.8" class="st20" width="1170" height="665.4"/>
<rect x="218.1" y="35.3" class="st20" width="1170" height="665.4"/>
</svg>
