<?xml version="1.0" encoding="utf-8"?>
<!-- Generator: Adobe Illustrator 22.0.1, SVG Export Plug-In . SVG Version: 6.00 Build 0)  -->
<svg version="1.1" id="Layer_1" xmlns="http://www.w3.org/2000/svg" xmlns:xlink="http://www.w3.org/1999/xlink" x="0px" y="0px"
	 viewBox="0 0 1417.3 539.2" style="enable-background:new 0 0 1417.3 539.2;" xml:space="preserve">
<style type="text/css">
	.st0{fill:#FFFFFF;}
</style>
<g>
	<path class="st0" d="M347.6,167.4h-14.4v163.3c0,17.6-4.1,27.7-13.9,33.9c-7.7,4.9-18.6,6-29.6,2.9c-0.4-0.2-5.7-2.1-8.6-3.5
		l-93.5-45.9v70l66.5,33.3c10.4,4.9,21,8.3,31.5,10.3c4.1,0.5,8.4,0.8,12.4,0.8c47.8,0,88.5-34.1,96.8-81.2c1-5.8,1.5-11.5,1.5-17.2
		V212.4C396.5,191.9,388,167.4,347.6,167.4"/>
	<path class="st0" d="M161.1,432.5h14.4V269.2c0-17.6,4.1-27.7,13.9-33.9c7.7-4.9,18.6-6,29.6-2.9c0.4,0.2,5.7,2.1,8.6,3.5
		l93.5,45.9v-70l-66.5-33.3c-10.4-4.9-21-8.3-31.5-10.3c-4.1-0.5-8.4-0.8-12.4-0.8c-47.8,0-88.5,34.1-96.8,81.2
		c-1,5.8-1.5,11.5-1.5,17.2l0,121.7C112.1,408,120.6,432.5,161.1,432.5"/>
	<path class="st0" d="M521.7,406v-41.4h8.7V406c0,12.9,6.4,19.4,19.3,19.4c12.9,0,19.3-6.5,19.3-19.4v-41.4h8.7V406
		c0,17.7-9.3,26.5-28,26.5C531,432.5,521.7,423.6,521.7,406"/>
	<polygon class="st0" points="600.2,364.6 600.2,424.9 635.5,424.9 635.5,432 591.5,432 591.5,364.6 	"/>
	<path class="st0" d="M692,429.4c-5.4,2.1-11.3,3.1-17.6,3.1c-24.4,0-36.6-11.7-36.6-35.1c0-22.1,11.8-33.2,35.3-33.2
		c6.8,0,13,0.9,18.8,2.8v7.5c-5.8-2.2-11.8-3.3-17.9-3.3c-18.4,0-27.6,8.7-27.6,26.1c0,18.7,9,28,27.1,28c2.9,0,6.1-0.4,9.6-1.1
		v-22.9h8.7V429.4z"/>
	<path class="st0" d="M740.6,364.6H731L702.4,432h9l8.7-21.2H751l8.7,21.2h9.7L740.6,364.6z M723,403.7l12.5-30.5l12.6,30.5H723z"/>
	<rect x="840.7" y="364.6" class="st0" width="8.7" height="67.4"/>
	<path class="st0" d="M898.5,364.6h-9.7L860.3,432h9l8.7-21.2h30.9l8.7,21.2h9.7L898.5,364.6z M880.9,403.7l12.5-30.5l12.6,30.5
		H880.9z"/>
	<path class="st0" d="M459.8,364.7h29.7c12.3,0,18.7,7.8,18.7,17c0,4.4-1.6,10.6-8.8,14.1c4.3,1.8,12,4.9,12,16.4
		c0,10.8-7.8,20-22.5,20h-29V364.7z M468.7,393.1h16.7c8.6,0,13.8-2.6,13.8-10.9c0-6.3-3.8-9.8-13.7-9.8h-16.8V393.1z M468.7,424.3
		h19.6c9.3,0,14-4.9,14-12.4c0-9.5-8.2-11.3-15.5-11.3h-18.2V424.3z"/>
	<path class="st0" d="M829,432l-22.8-30.6h1.9c13.8,0,18.9-10,18.9-18.9c0-10.3-7.1-17.9-18.9-17.9h-27.9V432h8.6v-30.6h7.9
		l21.4,30.6H829z M788.9,372h16.7c7.1,0,12.6,2.6,12.6,10.6c0,8.6-5.2,11.4-13,11.4h-16.4V372z"/>
	<path class="st0" d="M606.1,259.2c24.2,0,36.3,12.3,36.3,37c0,3.3-0.2,6.6-0.7,9.9h-52.9c0,11.2,8.2,16.8,24.7,16.8
		c8,0,16.1-0.8,24.1-2.3v15.9c-7,1.5-15.6,2.3-25.6,2.3c-28.9,0-43.3-13.6-43.3-40.7C568.7,272.2,581.2,259.2,606.1,259.2
		 M588.8,292.2h34v-0.6c0-11-5.6-16.5-16.7-16.5C595.5,275,589.7,280.7,588.8,292.2"/>
	<path class="st0" d="M817.5,259.2c24.2,0,36.3,12.3,36.3,37c0,3.3-0.2,6.6-0.7,9.9h-52.9c0,11.2,8.2,16.8,24.7,16.8
		c8,0,16.1-0.8,24.1-2.3v15.9c-7,1.5-15.6,2.3-25.6,2.3c-28.9,0-43.3-13.6-43.3-40.7C780.1,272.2,792.5,259.2,817.5,259.2
		 M800.2,292.2h34v-0.6c0-11-5.6-16.5-16.7-16.5C806.8,275,801.1,280.7,800.2,292.2"/>
	<path class="st0" d="M917.5,335.1v-16.7c8.8,3.5,19.1,5.3,30.7,5.3c8.7,0,13-2.8,13-8.3c0-5.3-2.9-8-8.7-8H938
		c-16.2,0-24.3-8-24.3-23.9c0-16.7,11.8-25,35.4-25c10,0,19.5,1.5,28.3,4.6v16.7c-8.8-3.5-18.5-5.3-28.8-5.3
		c-10.9,0-16.3,2.8-16.3,8.3c0,5.3,3.2,8,9.5,8h12.9c17.7,0,26.6,8,26.6,23.9c0,16.7-11.3,25-33.8,25
		C936.3,339.7,926.4,338.2,917.5,335.1"/>
	<path class="st0" d="M1052.4,336.6c-6.6,1.5-13.4,2.3-20.5,2.3c-28.3,0-42.5-13.8-42.5-41.4c0-25.5,14.2-38.3,42.5-38.3
		c7.1,0,13.9,0.8,20.5,2.3v15.9c-6.6-1.5-12.9-2.3-19-2.3c-15.9,0-23.9,7.5-23.9,22.4c0,17,8,25.4,23.9,25.4c6.1,0,12.4-0.8,19-2.3
		V336.6z"/>
	<path class="st0" d="M1066.4,338.9V230.4h20.1v39c6.3-6.8,14.3-10.2,24.1-10.2c18.9,0,28.3,9.8,28.3,29.4v50.2h-20.1v-50.2
		c0-8.8-4.4-13.2-13.1-13.2c-6.5,0-12.9,2.6-19.1,7.8v55.6H1066.4z"/>
	<path class="st0" d="M1186.1,259.2c24.2,0,36.3,12.3,36.3,37c0,3.3-0.2,6.6-0.7,9.9h-52.9c0,11.2,8.2,16.8,24.7,16.8
		c8,0,16.1-0.8,24.1-2.3v15.9c-7,1.5-15.6,2.3-25.6,2.3c-28.9,0-43.3-13.6-43.3-40.7C1148.7,272.2,1161.2,259.2,1186.1,259.2
		 M1168.8,292.2h34v-0.6c0-11-5.6-16.5-16.7-16.5C1175.5,275,1169.7,280.7,1168.8,292.2"/>
	<polygon class="st0" points="1306.7,338.9 1271.8,298 1303.7,259.1 1281.3,259.1 1253.4,293.5 1253.4,230.4 1233.3,230.4 
		1233.3,338.9 1253.4,338.9 1253.4,303.8 1282.3,338.9 	"/>
	<path class="st0" d="M883.2,255.2c0-4.9-4-8.9-8.9-8.9l-3.9,0h-5.1v71.1c0,14.3,6.7,21.5,20,21.5h17.9V323h-8.2
		c-6.4,0-9.6-3.7-9.6-11.2v-36.7h17.8v-15.9h-20.1v-1.8V255.2z"/>
	<path class="st0" d="M742.9,259.3c-8.9,0-17.4,3.6-25.6,10.9c-3.7-7.3-10.5-10.9-20.6-10.9s-18.6,3.8-25.8,11.5v-2.6
		c0-4.9-4-8.9-8.9-8.9l-3.9,0h-5.1v79.6h20.1v-55.4c5.2-5.4,10.7-8,16.6-8c7.4,0,11.1,4.5,11.1,13.5v49.9H721v-55.4
		c5.5-5.4,11.3-8,17.2-8c8,0,12,4.4,12,13.3v50.2h20.1v-49.4C770.3,269.3,761.2,259.3,742.9,259.3"/>
	<path class="st0" d="M459.8,338.9V230.6h8c7.2,0,12.2-0.9,21.2,10.7c9.2,11.9,49,67.5,49,67.5v-78.2h20.1v108.3h-20.9L480,258.3
		v80.6H459.8z"/>
	<path class="st0" d="M542.5,230.6"/>
</g>
</svg>
